<svg width="13" height="12" viewBox="0 0 13 12" fill="none" xmlns="http://www.w3.org/2000/svg">
    <g clip-path="url(#clip0_128_4393)">
        <path
            d="M11.8377 12C12.2034 12 12.5 11.7035 12.5 11.3377V0.662297C12.5 0.296484 12.2034 0 11.8377 0H1.1623C0.796438 0 0.5 0.296484 0.5 0.662297V11.3377C0.5 11.7035 0.796438 12 1.1623 12H11.8377Z"
            fill="#395185" />
        <mask id="path-2-inside-1_128_4393" fill="white">
            <path
                d="M8.77972 12.0001V7.35302H10.3396L10.5731 5.542H8.77972V4.38569C8.77972 3.86135 8.92536 3.50402 9.67728 3.50402L10.6363 3.50359V1.88383C10.4704 1.86175 9.90111 1.81244 9.23886 1.81244C7.85614 1.81244 6.90955 2.65642 6.90955 4.20639V5.542H5.3457V7.35302H6.90955V12.0001H8.77972Z" />
        </mask>
        <path
            d="M8.77972 12.0001V7.35302H10.3396L10.5731 5.542H8.77972V4.38569C8.77972 3.86135 8.92536 3.50402 9.67728 3.50402L10.6363 3.50359V1.88383C10.4704 1.86175 9.90111 1.81244 9.23886 1.81244C7.85614 1.81244 6.90955 2.65642 6.90955 4.20639V5.542H5.3457V7.35302H6.90955V12.0001H8.77972Z"
            fill="white" />
        <path
            d="M8.77972 7.35302V6.35302H7.77972V7.35302H8.77972ZM10.3396 7.35302V8.35302H11.2189L11.3314 7.48091L10.3396 7.35302ZM10.5731 5.542L11.5649 5.66989L11.7103 4.542H10.5731V5.542ZM8.77972 5.542H7.77972V6.542H8.77972V5.542ZM9.67728 3.50402V4.50402L9.67772 4.50402L9.67728 3.50402ZM10.6363 3.50359L10.6367 4.50359L11.6363 4.50315V3.50359H10.6363ZM10.6363 1.88383H11.6363V1.00807L10.7682 0.892565L10.6363 1.88383ZM6.90955 5.542V6.542H7.90955V5.542H6.90955ZM5.3457 5.542V4.542H4.3457V5.542H5.3457ZM5.3457 7.35302H4.3457V8.35302H5.3457V7.35302ZM6.90955 7.35302H7.90955V6.35302H6.90955V7.35302ZM6.90955 12.0001H5.90955V13.0001H6.90955V12.0001ZM9.77972 12.0001V7.35302H7.77972V12.0001H9.77972ZM8.77972 8.35302H10.3396V6.35302H8.77972V8.35302ZM11.3314 7.48091L11.5649 5.66989L9.58132 5.41411L9.34779 7.22513L11.3314 7.48091ZM10.5731 4.542H8.77972V6.542H10.5731V4.542ZM9.77972 5.542V4.38569H7.77972V5.542H9.77972ZM9.77972 4.38569C9.77972 4.34249 9.78125 4.31071 9.78334 4.28781C9.78543 4.26484 9.78762 4.25584 9.78729 4.25723C9.78636 4.26119 9.7711 4.3215 9.71149 4.3923C9.68243 4.42682 9.64983 4.45527 9.61741 4.47688C9.58572 4.498 9.56083 4.50818 9.5495 4.51214C9.53142 4.51845 9.56247 4.50402 9.67728 4.50402V2.50402C9.16808 2.50402 8.58601 2.62379 8.18157 3.10415C7.80959 3.54594 7.77972 4.08069 7.77972 4.38569H9.77972ZM9.67772 4.50402L10.6367 4.50359L10.6359 2.5036L9.67684 2.50402L9.67772 4.50402ZM11.6363 3.50359V1.88383H9.6363V3.50359H11.6363ZM10.7682 0.892565C10.5523 0.863848 9.93851 0.812439 9.23886 0.812439V2.81244C9.86371 2.81244 10.3884 2.85966 10.5044 2.87509L10.7682 0.892565ZM9.23886 0.812439C8.34456 0.812439 7.48828 1.08876 6.85271 1.71696C6.21406 2.34821 5.90955 3.22468 5.90955 4.20639H7.90955C7.90955 3.63814 8.07834 3.31763 8.25866 3.13939C8.44207 2.95811 8.75044 2.81244 9.23886 2.81244V0.812439ZM5.90955 4.20639V5.542H7.90955V4.20639H5.90955ZM6.90955 4.542H5.3457V6.542H6.90955V4.542ZM4.3457 5.542V7.35302H6.3457V5.542H4.3457ZM5.3457 8.35302H6.90955V6.35302H5.3457V8.35302ZM5.90955 7.35302V12.0001H7.90955V7.35302H5.90955ZM6.90955 13.0001H8.77972V11.0001H6.90955V13.0001Z"
            fill="white" mask="url(#path-2-inside-1_128_4393)" />
    </g>
    <defs>
        <clipPath id="clip0_128_4393">
            <rect width="12" height="12" fill="white" transform="translate(0.5)" />
        </clipPath>
    </defs>
</svg>
