<svg width="12" height="12" viewBox="0 0 12 12" fill="none" xmlns="http://www.w3.org/2000/svg">
<g clip-path="url(#clip0_128_4396)">
<path d="M2.63312 4.8825C2.86706 4.17472 3.31855 3.55891 3.92317 3.1229C4.5278 2.68689 5.25468 2.45297 6.00012 2.4545C6.84512 2.4545 7.60912 2.7545 8.20912 3.2455L9.95512 1.5C8.89112 0.5725 7.52762 0 6.00012 0C3.63512 0 1.59912 1.349 0.620117 3.325L2.63312 4.8825Z" fill="#EA4335"/>
<path d="M8.02015 9.00647C7.47515 9.35797 6.78315 9.54547 6.00015 9.54547C5.25769 9.547 4.53355 9.31494 3.93027 8.88215C3.32699 8.44936 2.87512 7.83777 2.63865 7.13397L0.618652 8.66747C1.11427 9.67062 1.88129 10.5147 2.83256 11.1037C3.78384 11.6928 4.88125 12.0033 6.00015 12C7.46665 12 8.86765 11.4785 9.91715 10.5L8.02065 9.00647H8.02015Z" fill="#34A853"/>
<path d="M9.917 10.5C11.0145 9.476 11.727 7.952 11.727 6C11.727 5.645 11.6725 5.2635 11.591 4.909H6V7.2275H9.218C9.0595 8.007 8.633 8.6105 8.0205 9.0065L9.917 10.5Z" fill="#4A90E2"/>
<path d="M2.63856 7.13401C2.51624 6.76847 2.45409 6.38548 2.45456 6.00001C2.45456 5.60901 2.51706 5.23351 2.63306 4.88251L0.620058 3.32501C0.208247 4.15636 -0.00403997 5.07227 5.82273e-05 6.00001C5.82273e-05 6.96001 0.222558 7.86501 0.618558 8.66751L2.63856 7.13401Z" fill="#FBBC05"/>
</g>
<defs>
<clipPath id="clip0_128_4396">
<rect width="12" height="12" fill="white"/>
</clipPath>
</defs>
</svg>
