<svg id="logo" xmlns="http://www.w3.org/2000/svg" width="100" height="70" >
  <path id="blue" d="M10.26,70a1.07,1.07,0,0,1-.9-.489L0,55.042l18.256-19.8,21.16,33.1a1.072,1.072,0,0,1-.9,1.65ZM5.72,14.737,18.6.357A1.072,1.072,0,0,1,19.4,0h27.9a1.072,1.072,0,0,1,.8,1.786L18.256,34.743Z" transform="translate(50.032)" fill="#03243A"/>
  <path id="red" d="M10.584,69.978,40.7,35.725,17.894,0H37.286a1.994,1.994,0,0,1,1.675.914L60.585,34.754,29.369,69.325a2,2,0,0,1-1.468.654Zm-8.606-.014a1.983,1.983,0,0,1-1.451-3.33L30,34.754,9.548,3.051A1.983,1.983,0,0,1,11.217,0h3.29L37.15,35.461,6.783,69.964Z" transform="translate(0)" fill="#eb1d24"/>  
</svg>
