<svg id="logo" xmlns="http://www.w3.org/2000/svg" width="276.445" height="70" viewBox="0 0 276.445 70">
  <path id="blue" d="M10.26,70a1.07,1.07,0,0,1-.9-.489L0,55.042l18.256-19.8,21.16,33.1a1.072,1.072,0,0,1-.9,1.65ZM5.72,14.737,18.6.357A1.072,1.072,0,0,1,19.4,0h27.9a1.072,1.072,0,0,1,.8,1.786L18.256,34.743Z" transform="translate(50.032)" fill="#03243A"/>
  <path id="red" d="M10.584,69.978,40.7,35.725,17.894,0H37.286a1.994,1.994,0,0,1,1.675.914L60.585,34.754,29.369,69.325a2,2,0,0,1-1.468.654Zm-8.606-.014a1.983,1.983,0,0,1-1.451-3.33L30,34.754,9.548,3.051A1.983,1.983,0,0,1,11.217,0h3.29L37.15,35.461,6.783,69.964Z" transform="translate(0)" fill="#eb1d24"/>
  <path id="press" d="M141.954,39.244l6.073-5.133s4.051,7.091,11.211,7.091c4.051,0,8.238-1.618,8.238-5.469,0-3.99-3.033-5.4-8.638-7.356-6.956-2.433-14.79-6.216-14.79-15C144.048,6.684,149.989,0,159.513,0a20.315,20.315,0,0,1,15.4,7.5l-5.605,5.538s-3.93-5.334-9.792-5.334c-4.051,0-7.227,2.5-7.227,5.673,0,4.119,3.715,5.4,10.2,7.835,7.224,2.7,13.218,5.941,13.218,14.519S168.159,48.89,159.242,48.89C147.424,48.89,141.954,39.244,141.954,39.244Zm-37.483,0,6.073-5.133S114.6,41.2,121.755,41.2c4.055,0,8.242-1.618,8.242-5.469,0-3.99-3.037-5.4-8.642-7.356-6.956-2.433-14.79-6.216-14.79-15C106.565,6.684,112.51,0,122.03,0a20.315,20.315,0,0,1,15.4,7.5l-5.6,5.541S127.9,7.71,122.034,7.71c-4.051,0-7.227,2.5-7.227,5.673,0,4.119,3.716,5.4,10.2,7.835,7.224,2.7,13.25,5.941,13.25,14.519s-7.581,13.154-16.5,13.154C109.941,48.89,104.472,39.244,104.472,39.244ZM72.19,48.1V.822h28.634v7.7H80.293V20H99.206v7.7H80.293v12.7h20.939v7.7Zm-13.644,0L47.336,30.266H43.621V48.1h-8.1V.822H51.051C60.44.822,66.72,6.895,66.72,15.544c0,7.092-3.783,12.5-10.535,14.183L68,48.1ZM43.606,22.568h6.431c5.2,0,8.442-2.365,8.442-7.024S55.238,8.52,50.037,8.52H43.606ZM0,48.1V.822H16.076c9.389,0,15.669,6.481,15.669,15.126s-6.291,15.13-15.669,15.13H8.11V48.1ZM8.1,23.379h6.956c5.537,0,8.442-2.972,8.442-7.431H23.5c0-4.455-2.9-7.427-8.442-7.427H8.1Z" transform="translate(100.741 13.629)" fill="#03243A"/>
</svg>
